<svg width="10" height="12" viewBox="0 0 10 12" fill="none" xmlns="http://www.w3.org/2000/svg">
<path d="M8.40724e-05 11.88V4.41074e-06H4.68008C6.10808 4.41074e-06 7.15208 0.288004 7.81208 0.864004C8.47208 1.44 8.80208 2.238 8.80208 3.258C8.80208 3.882 8.62208 4.44 8.26208 4.932C7.90208 5.412 7.37408 5.718 6.67808 5.85V5.868C7.44608 5.988 8.04008 6.306 8.46008 6.822C8.89208 7.326 9.10808 7.914 9.10808 8.586C9.10808 9.606 8.73608 10.41 7.99208 10.998C7.24808 11.586 6.16808 11.88 4.75208 11.88H8.40724e-05ZM1.89008 10.278H4.84208C5.59808 10.278 6.16208 10.122 6.53408 9.81C6.91808 9.498 7.11008 9.06 7.11008 8.496C7.11008 7.932 6.91808 7.494 6.53408 7.182C6.16208 6.87 5.59808 6.714 4.84208 6.714H1.89008V10.278ZM1.89008 5.112H4.53608C6.04808 5.112 6.80408 4.53 6.80408 3.366C6.80408 2.202 6.04808 1.62 4.53608 1.62H1.89008V5.112Z" fill="#B1C4D0"/>
</svg>
