<svg width="11" height="13" viewBox="0 0 11 13" fill="none" xmlns="http://www.w3.org/2000/svg">
<path d="M10.5121 8.91C10.2721 9.63 9.9121 10.242 9.4321 10.746C8.9521 11.238 8.3881 11.61 7.7401 11.862C7.0921 12.114 6.3781 12.24 5.5981 12.24C4.4581 12.24 3.4681 11.994 2.6281 11.502C1.7881 11.01 1.1401 10.308 0.6841 9.396C0.2281 8.484 9.96888e-05 7.392 9.96888e-05 6.12C9.96888e-05 4.848 0.2281 3.756 0.6841 2.844C1.1401 1.932 1.7881 1.23 2.6281 0.737997C3.4681 0.245997 4.4521 -2.74181e-06 5.5801 -2.74181e-06C6.3601 -2.74181e-06 7.0621 0.107997 7.6861 0.323997C8.3221 0.539997 8.8621 0.863997 9.3061 1.296C9.7501 1.728 10.0921 2.268 10.3321 2.916L8.5141 3.726C8.2741 3.018 7.9261 2.502 7.4701 2.178C7.0141 1.842 6.4201 1.674 5.6881 1.674C4.9561 1.674 4.3141 1.848 3.7621 2.196C3.2101 2.544 2.7781 3.048 2.4661 3.708C2.1661 4.368 2.0161 5.172 2.0161 6.12C2.0161 7.056 2.1601 7.86 2.4481 8.532C2.7361 9.192 3.1501 9.696 3.6901 10.044C4.2301 10.392 4.8781 10.566 5.6341 10.566C6.3661 10.566 6.9961 10.38 7.5241 10.008C8.0641 9.624 8.4481 9.054 8.6761 8.298L10.5121 8.91Z" fill="#B1C4D0"/>
</svg>
