<svg width="11" height="12" viewBox="0 0 11 12" fill="none" xmlns="http://www.w3.org/2000/svg">
<path d="M4.19408 4.41074e-06C6.05408 4.41074e-06 7.50008 0.516005 8.53208 1.548C9.57608 2.568 10.0981 4.032 10.0981 5.94C10.0981 7.848 9.57608 9.318 8.53208 10.35C7.50008 11.37 6.05408 11.88 4.19408 11.88H8.40724e-05V4.41074e-06H4.19408ZM4.19408 10.242C5.45408 10.242 6.41408 9.87 7.07408 9.126C7.74608 8.37 8.08208 7.308 8.08208 5.94C8.08208 4.572 7.74608 3.516 7.07408 2.772C6.41408 2.016 5.45408 1.638 4.19408 1.638H1.92608V10.242H4.19408Z" fill="#B1C4D0"/>
</svg>
